<svg data-name="Layer 1" fill="#fff" xmlns="http://www.w3.org/2000/svg" viewBox="0 0 902.76 980"><path d="M547.65,18.2a44.32,44.32,0,0,0-45.9,67.7,43.78,43.78,0,0,0,28,19c93.1,19.1,173.2,73.6,225.6,153.2s70.7,174.7,51.5,267.8a43.24,43.24,0,0,0,6.4,33.2,44,44,0,0,0,28,19,45.5,45.5,0,0,0,7.3.9,44.34,44.34,0,0,0,45-35.3c49.5-240.2-105.7-476-345.9-525.5Zm76.1,664.5c2.6,1.7,61,39.2,105.8,85.3,16.9,17.4,45.2,46.6,44.4,80.4-.6,23.1-13.7,46.3-39.9,70.7-6.5,6.4-64.9,60.9-158.3,60.9a267.84,267.84,0,0,1-78.1-12.1c-27.6-8.4-55.6-21.3-83.3-38.3-109.2-64.5-193.5-147.6-273.5-269.4C3.35,450.9-.65,271.6.05,237.8.25,81.8,130.15,20.5,145,14c20.4-9.4,38.2-14,54.6-14a76.56,76.56,0,0,1,22.3,3.2c14.3,4.3,34.2,15.6,47.6,44.5,18.2,39.3,35.5,95.6,47.2,154.5,12.4,61.2-21.9,78.3-55.1,94.9l-1.3.6s-58.7,24.5-69,28.7a21.3,21.3,0,0,0-12,26.1c23.7,71.7,59.8,146,104.5,215,43.9,67.9,96.2,130.5,151.1,181.2a21.08,21.08,0,0,0,14.3,5.6l1.8-.1a21.15,21.15,0,0,0,14.8-8c8.9-11.5,22.6-28,37-41.8,27.4-26,52.1-38.7,75.7-38.7a64.77,64.77,0,0,1,19,2.8c6,1.9,15.6,7.1,26.3,14.2ZM438,380.9a44.22,44.22,0,0,1,10.6-87.5,46.93,46.93,0,0,1,7.3.9c102.7,21.2,169,122,147.9,224.7a44,44,0,0,1-19,28,43.61,43.61,0,0,1-33.2,6.4,44.06,44.06,0,0,1-34.4-52.2A101.95,101.95,0,0,0,438,380.9Zm46-138.6a44.22,44.22,0,0,1,10.6-87.5,46.93,46.93,0,0,1,7.3.9c83.1,17.1,154.6,65.7,201.4,136.8s63.1,155.9,45.9,239a43.53,43.53,0,0,1-19,28,44.43,44.43,0,0,1-26,7.3,45.5,45.5,0,0,1-7.3-.9,44.3,44.3,0,0,1-34.4-52.2A230.11,230.11,0,0,0,484,242.3Z"/></svg>