<svg data-name="Layer 1" xmlns="http://www.w3.org/2000/svg" viewBox="0 0 210.7 36.2"><defs><style>.cls-1,.cls-2{fill:#6668ba;}.cls-1{opacity:0.1;}</style></defs><path d="M49.31,28.24H41.25V6.42h8a11.94,11.94,0,0,1,5.75,1.31,9,9,0,0,1,3.72,3.75,12.14,12.14,0,0,1,1.31,5.84,12.28,12.28,0,0,1-1.3,5.86,8.9,8.9,0,0,1-3.73,3.76A11.9,11.9,0,0,1,49.31,28.24Zm-2.79-4.49h2.59a6.91,6.91,0,0,0,3.1-.63,4,4,0,0,0,1.93-2,9,9,0,0,0,.66-3.77,8.88,8.88,0,0,0-.66-3.75,4.11,4.11,0,0,0-2-2A7.26,7.26,0,0,0,49,10.92H46.52Z"/><path d="M62.55,28.24V6.42H77.76v4.29H67.82v4.47H77v4.29H67.82V24h9.94v4.28Z"/><path d="M99,6.42V28.24H94.56L85.88,15.65h-.14V28.24H80.47V6.42H85L93.59,19h.18V6.42Z"/><path d="M101,10.71V6.42h18.44v4.29h-6.61V28.24h-5.2V10.71Z"/><path d="M121.45,28.24V6.42h15.22v4.29h-9.94v4.47h9.16v4.29h-9.16V24h9.94v4.28Z"/><path d="M139.37,28.24V6.42h5.27V24h9.08v4.28Z"/><path d="M155.85,28.24V6.42h15.21v4.29h-9.94v4.47h9.16v4.29h-9.16V24h9.94v4.28Z"/><path d="M185.55,13a2.47,2.47,0,0,0-.94-1.82,3.77,3.77,0,0,0-2.38-.66,4.62,4.62,0,0,0-1.7.27,2.26,2.26,0,0,0-1,.73,1.87,1.87,0,0,0-.35,1.06,1.52,1.52,0,0,0,.2.86,2,2,0,0,0,.64.66,4.4,4.4,0,0,0,1,.49,11,11,0,0,0,1.34.38l1.87.42a13.51,13.51,0,0,1,2.86.94,7.69,7.69,0,0,1,2.09,1.39,5.55,5.55,0,0,1,1.29,1.87,6.13,6.13,0,0,1,.44,2.36,6,6,0,0,1-1,3.55,6.44,6.44,0,0,1-3,2.27,12.24,12.24,0,0,1-4.66.79,12.64,12.64,0,0,1-4.77-.82,6.83,6.83,0,0,1-3.17-2.49A7.61,7.61,0,0,1,173.13,21h5.05a3.2,3.2,0,0,0,.57,1.75,3,3,0,0,0,1.38,1.07,5.31,5.31,0,0,0,2,.36,4.87,4.87,0,0,0,1.81-.29,2.63,2.63,0,0,0,1.16-.79,1.88,1.88,0,0,0,.41-1.18,1.6,1.6,0,0,0-.38-1.06,3,3,0,0,0-1.14-.76,12.63,12.63,0,0,0-2-.61l-2.28-.53a9.82,9.82,0,0,1-4.46-2.1,5,5,0,0,1-1.62-3.94,5.86,5.86,0,0,1,1.08-3.55,7.35,7.35,0,0,1,3-2.37,10.86,10.86,0,0,1,4.42-.85,10.55,10.55,0,0,1,4.41.85,6.85,6.85,0,0,1,2.9,2.41,6.35,6.35,0,0,1,1,3.57Z"/><path d="M192.26,10.71V6.42H210.7v4.29h-6.61V28.24h-5.2V10.71Z"/><path class="cls-1" d="M29.36,8V7.74A6.84,6.84,0,0,0,26.54,2a10.44,10.44,0,0,0-6-1.68h0a13,13,0,0,0-5.35,1.1l-.27.13-.27-.13a12.67,12.67,0,0,0-4.22-1h0L7.65.4H7.59A9.63,9.63,0,0,0,3.13,2,6.86,6.86,0,0,0,.32,7.76V8c0,.11,0,.21,0,.32a12.7,12.7,0,0,0,1.74,7l.15.29a15.16,15.16,0,0,1,2,8.23c0,5.59,1,8.49,1.77,9.94.93,1.64,1.4,2.12,2.69,2.12s2-1.36,2-2.26c.06-.66.07-1.43.08-2.24a26.2,26.2,0,0,1,.74-6.7l0-.07a12.29,12.29,0,0,1,1.24-3.11A2.8,2.8,0,0,1,15,20.19a2.2,2.2,0,0,1,1.87,1.3,13.85,13.85,0,0,1,1.26,3.18,22.76,22.76,0,0,1,.79,7.51,4,4,0,0,0,.67,3,1.91,1.91,0,0,0,1.4.69h0c1.18,0,1.73-.44,2.68-2.12.81-1.45,1.78-4.34,1.78-9.94a15.2,15.2,0,0,1,2-8.25l.14-.26a12.88,12.88,0,0,0,1.73-7Z"/><path class="cls-2" d="M29.65,8V7.72a7.16,7.16,0,0,0-2.94-6A10.72,10.72,0,0,0,20.49,0h0A13.21,13.21,0,0,0,15,1.13l-.16.07-.14-.07A12.73,12.73,0,0,0,10.36.05h-.08L7.63.08H7.54A9.93,9.93,0,0,0,3,1.74,7.15,7.15,0,0,0,0,7.75v.6a13,13,0,0,0,1.77,7.1l.15.3a14.93,14.93,0,0,1,2,8.07c0,5.67,1,8.62,1.81,10.1S7.18,36.2,8.68,36.2A2.52,2.52,0,0,0,11,33.65c.06-.67.08-1.44.09-2.26a25.44,25.44,0,0,1,.73-6.62l0-.06a11.71,11.71,0,0,1,1.2-3A2.48,2.48,0,0,1,15,20.5a1.93,1.93,0,0,1,1.62,1.15,13.75,13.75,0,0,1,1.23,3.12,22,22,0,0,1,.77,7.38,4.33,4.33,0,0,0,.76,3.26A2.19,2.19,0,0,0,21,36.2h0c1.42,0,2-.67,2.94-2.28s1.82-4.43,1.81-10.1a15,15,0,0,1,2-8.09l.14-.27a13.09,13.09,0,0,0,1.77-7.12ZM26.3,14.53l-.13.26a16.83,16.83,0,0,0-2.25,9c0,5.5-1,8.07-1.56,9.11-.76,1.34-.92,1.34-1.39,1.34a.45.45,0,0,1-.3-.18c-.15-.18-.37-.64-.28-1.79a23.94,23.94,0,0,0-.84-8.1,15.22,15.22,0,0,0-1.43-3.57A3.67,3.67,0,0,0,15,18.59a4.27,4.27,0,0,0-3.42,2,13.49,13.49,0,0,0-1.43,3.53l0,.07a27.19,27.19,0,0,0-.81,7.14c0,.81,0,1.51-.07,2.12,0,0-.08.8-.53.8s-.64,0-1.4-1.34c-.58-1-1.56-3.61-1.56-9.11a16.9,16.9,0,0,0-2.23-9l-.15-.28A11.1,11.1,0,0,1,1.81,8.34V7.8A5.2,5.2,0,0,1,4,3.32,8,8,0,0,1,7.7,2l2.56,0a11.08,11.08,0,0,1,3.68.92l.49.23,3.52,2a.83.83,0,0,0,.42.11.89.89,0,0,0,.8-.5,1,1,0,0,0-.37-1.3L17,2.4a12.59,12.59,0,0,1,3.47-.48h0a9.14,9.14,0,0,1,5.15,1.39,5.23,5.23,0,0,1,2.16,4.46V8c0,.11,0,.22,0,.31A11.19,11.19,0,0,1,26.3,14.53Z"/><path class="cls-2" d="M6.05,13.47a1,1,0,0,1-.91-.6c-1-2.28-1.06-6.45,1.62-8.38a1,1,0,0,1,1.39.29,1.11,1.11,0,0,1-.27,1.48C6.25,7.42,6.24,10.4,7,11.94a1.09,1.09,0,0,1-.47,1.42A.86.86,0,0,1,6.05,13.47Z"/></svg>